<?xml version="1.0" encoding="us-ascii" standalone="no"?><svg xmlns="http://www.w3.org/2000/svg" xmlns:xlink="http://www.w3.org/1999/xlink" contentStyleType="text/css" height="930px" preserveAspectRatio="none" style="width:1439px;height:930px;background:#FFFFFF;" version="1.1" viewBox="0 0 1439 930" width="1439px" zoomAndPan="magnify"><defs/><g><ellipse cx="753.5" cy="20" fill="#222222" rx="10" ry="10" style="stroke:#222222;stroke-width:1.0;"/><rect fill="#F1F1F1" height="34.1328" rx="12.5" ry="12.5" style="stroke:#181818;stroke-width:0.5;" width="264" x="621.5" y="50"/><text fill="#000000" font-family="sans-serif" font-size="12" lengthAdjust="spacing" textLength="244" x="631.5" y="71.6016">&#1055;&#1086;&#1083;&#1100;&#1079;&#1086;&#1074;&#1072;&#1090;&#1077;&#1083;&#1100; &#1074;&#1099;&#1073;&#1080;&#1088;&#1072;&#1077;&#1090; &#1090;&#1086;&#1074;&#1072;&#1088; &#1074; &#1089;&#1080;&#1089;&#1090;&#1077;&#1084;&#1077;</text><polygon fill="#F1F1F1" points="640,104.1328,867,104.1328,879,116.1328,867,128.1328,640,128.1328,628,116.1328,640,104.1328" style="stroke:#181818;stroke-width:0.5;"/><text fill="#000000" font-family="sans-serif" font-size="11" lengthAdjust="spacing" textLength="227" x="640" y="120.29">&#1055;&#1086;&#1083;&#1100;&#1079;&#1086;&#1074;&#1072;&#1090;&#1077;&#1083;&#1100; &#1079;&#1072;&#1088;&#1077;&#1075;&#1080;&#1089;&#1090;&#1088;&#1080;&#1088;&#1086;&#1074;&#1072;&#1085; &#1074; &#1089;&#1080;&#1089;&#1090;&#1077;&#1084;&#1077;</text><text fill="#000000" font-family="sans-serif" font-size="11" lengthAdjust="spacing" textLength="14" x="614" y="113.8125">&#1044;&#1072;</text><text fill="#000000" font-family="sans-serif" font-size="11" lengthAdjust="spacing" textLength="19" x="879" y="113.8125">&#1053;&#1077;&#1090;</text><rect fill="#F1F1F1" height="34.1328" rx="12.5" ry="12.5" style="stroke:#181818;stroke-width:0.5;" width="379" x="377.5" y="138.1328"/><text fill="#000000" font-family="sans-serif" font-size="12" lengthAdjust="spacing" textLength="359" x="387.5" y="159.7344">&#1044;&#1072;&#1085;&#1085;&#1099;&#1077; &#1087;&#1086;&#1083;&#1100;&#1079;&#1086;&#1074;&#1072;&#1090;&#1077;&#1083;&#1103; &#1087;&#1088;&#1086;&#1074;&#1077;&#1088;&#1103;&#1102;&#1090;&#1089;&#1103; &#1074; &#1089;&#1077;&#1088;&#1074;&#1080;&#1089;&#1077; &#1072;&#1074;&#1090;&#1086;&#1088;&#1080;&#1079;&#1072;&#1094;&#1080;&#1080;</text><path d="M1123.5,142.5439 L1123.5,151.1992 L1103.5,155.1992 L1123.5,159.1992 L1123.5,167.8545 A0,0 0 0 0 1123.5,167.8545 L1427.5,167.8545 A0,0 0 0 0 1427.5,167.8545 L1427.5,152.5439 L1417.5,142.5439 L1123.5,142.5439 A0,0 0 0 0 1123.5,142.5439 " fill="#FEFFDD" style="stroke:#181818;stroke-width:0.5;"/><path d="M1417.5,142.5439 L1417.5,152.5439 L1427.5,152.5439 L1417.5,142.5439 " fill="#FEFFDD" style="stroke:#181818;stroke-width:0.5;"/><text fill="#000000" font-family="sans-serif" font-size="13" lengthAdjust="spacing" textLength="283" x="1129.5" y="160.1123">&#1052;&#1077;&#1090;&#1086;&#1076;&#1086;&#1084; post/user &#1089;&#1086;&#1079;&#1076;&#1072;&#1077;&#1090;&#1089;&#1103; &#1087;&#1086;&#1083;&#1100;&#1079;&#1086;&#1074;&#1072;&#1090;&#1077;&#1083;&#1100;</text><rect fill="#F1F1F1" height="34.1328" rx="12.5" ry="12.5" style="stroke:#181818;stroke-width:0.5;" width="327" x="776.5" y="138.1328"/><text fill="#000000" font-family="sans-serif" font-size="12" lengthAdjust="spacing" textLength="307" x="786.5" y="159.7344">&#1055;&#1086;&#1083;&#1100;&#1079;&#1086;&#1074;&#1072;&#1090;&#1077;&#1083;&#1100; &#1079;&#1072;&#1087;&#1086;&#1083;&#1085;&#1103;&#1077;&#1090; &#1076;&#1072;&#1085;&#1085;&#1099;&#1077; &#1076;&#1083;&#1103; &#1088;&#1077;&#1075;&#1080;&#1089;&#1090;&#1088;&#1072;&#1094;&#1080;&#1080;</text><polygon fill="#F1F1F1" points="753.5,178.2656,765.5,190.2656,753.5,202.2656,741.5,190.2656,753.5,178.2656" style="stroke:#181818;stroke-width:0.5;"/><rect fill="#F1F1F1" height="34.1328" rx="12.5" ry="12.5" style="stroke:#181818;stroke-width:0.5;" width="382" x="562.5" y="270.7432"/><text fill="#000000" font-family="sans-serif" font-size="12" lengthAdjust="spacing" textLength="362" x="572.5" y="292.3447">&#1044;&#1072;&#1085;&#1085;&#1099;&#1077; &#1079;&#1072;&#1087;&#1080;&#1089;&#1099;&#1074;&#1072;&#1102;&#1090;&#1089;&#1103;/&#1093;&#1088;&#1072;&#1085;&#1103;&#1090;&#1089;&#1103; &#1074; &#1041;&#1044; &#1089;&#1077;&#1088;&#1074;&#1080;&#1089;&#1072; &#1072;&#1074;&#1090;&#1086;&#1088;&#1080;&#1079;&#1072;&#1094;&#1080;&#1080;</text><rect fill="#F1F1F1" height="34.1328" rx="12.5" ry="12.5" style="stroke:#181818;stroke-width:0.5;" width="263" x="622" y="324.876"/><text fill="#000000" font-family="sans-serif" font-size="12" lengthAdjust="spacing" textLength="243" x="632" y="346.4775">&#1057;&#1077;&#1088;&#1074;&#1080;&#1089; &#1072;&#1074;&#1090;&#1086;&#1088;&#1080;&#1079;&#1072;&#1094;&#1080;&#1080; &#1086;&#1090;&#1087;&#1088;&#1072;&#1074;&#1083;&#1103;&#1077;&#1090; 200&#1054;&#1050;</text><polygon fill="#F1F1F1" points="707.5,222.2656,799.5,222.2656,811.5,234.2656,799.5,246.2656,707.5,246.2656,695.5,234.2656,707.5,222.2656" style="stroke:#181818;stroke-width:0.5;"/><text fill="#000000" font-family="sans-serif" font-size="11" lengthAdjust="spacing" textLength="14" x="757.5" y="256.9004">&#1044;&#1072;</text><text fill="#000000" font-family="sans-serif" font-size="11" lengthAdjust="spacing" textLength="92" x="707.5" y="238.4229">&#1044;&#1072;&#1085;&#1085;&#1099;&#1077; &#1074;&#1072;&#1083;&#1080;&#1076;&#1085;&#1099;</text><text fill="#000000" font-family="sans-serif" font-size="11" lengthAdjust="spacing" textLength="19" x="811.5" y="231.9453">&#1053;&#1077;&#1090;</text><ellipse cx="852.5" cy="234.2656" fill="none" rx="11" ry="11" style="stroke:#222222;stroke-width:1.0;"/><ellipse cx="852.5" cy="234.2656" fill="#222222" rx="6" ry="6" style="stroke:#222222;stroke-width:1.0;"/><path d="M877.5,375.7646 L877.5,392.0752 L857.5,396.0752 L877.5,400.0752 L877.5,416.3857 A0,0 0 0 0 877.5,416.3857 L1187.5,416.3857 A0,0 0 0 0 1187.5,416.3857 L1187.5,385.7646 L1177.5,375.7646 L877.5,375.7646 A0,0 0 0 0 877.5,375.7646 " fill="#FEFFDD" style="stroke:#181818;stroke-width:0.5;"/><path d="M1177.5,375.7646 L1177.5,385.7646 L1187.5,385.7646 L1177.5,375.7646 " fill="#FEFFDD" style="stroke:#181818;stroke-width:0.5;"/><text fill="#000000" font-family="sans-serif" font-size="13" lengthAdjust="spacing" textLength="226" x="883.5" y="393.333">&#1052;&#1077;&#1090;&#1086;&#1076;&#1086;&#1084; get &#1087;&#1086;&#1083;&#1091;&#1095;&#1072;&#1077;&#1084; &#1072;&#1082;&#1090;&#1091;&#1072;&#1083;&#1100;&#1085;&#1091;&#1102;</text><text fill="#000000" font-family="sans-serif" font-size="13" lengthAdjust="spacing" textLength="289" x="883.5" y="408.6436">&#1080;&#1085;&#1092;&#1086;&#1088;&#1084;&#1072;&#1094;&#1080;&#1102; &#1086; &#1090;&#1086;&#1074;&#1072;&#1088;&#1072;&#1093; c &#1089; &#1089;&#1077;&#1088;&#1074;&#1080;&#1089;&#1072; &#1090;&#1086;&#1074;&#1072;&#1088;&#1086;&#1074;;</text><rect fill="#F1F1F1" height="34.1328" rx="12.5" ry="12.5" style="stroke:#181818;stroke-width:0.5;" width="208" x="649.5" y="379.0088"/><text fill="#000000" font-family="sans-serif" font-size="12" lengthAdjust="spacing" textLength="188" x="659.5" y="400.6104">&#1055;&#1086;&#1083;&#1100;&#1079;&#1086;&#1074;&#1072;&#1090;&#1077;&#1083;&#1100; &#1086;&#1092;&#1086;&#1088;&#1084;&#1083;&#1103;&#1077;&#1090; &#1079;&#1072;&#1082;&#1072;&#1079;</text><polygon fill="#F1F1F1" points="661.5,436.3857,845.5,436.3857,857.5,448.3857,845.5,460.3857,661.5,460.3857,649.5,448.3857,661.5,436.3857" style="stroke:#181818;stroke-width:0.5;"/><text fill="#000000" font-family="sans-serif" font-size="11" lengthAdjust="spacing" textLength="184" x="661.5" y="452.543">&#1058;&#1086;&#1074;&#1072;&#1088; &#1077;&#1089;&#1090;&#1100; &#1074; &#1085;&#1072;&#1083;&#1080;&#1095;&#1080;&#1080; &#1074; &#1084;&#1072;&#1075;&#1072;&#1079;&#1080;&#1085;&#1077;?</text><text fill="#000000" font-family="sans-serif" font-size="11" lengthAdjust="spacing" textLength="14" x="635.5" y="446.0654">&#1044;&#1072;</text><text fill="#000000" font-family="sans-serif" font-size="11" lengthAdjust="spacing" textLength="19" x="857.5" y="446.0654">&#1053;&#1077;&#1090;</text><path d="M10,470.3857 L10,511.0068 A0,0 0 0 0 10,511.0068 L364,511.0068 A0,0 0 0 0 364,511.0068 L364,494.6963 L384,490.6963 L364,486.6963 L364,480.3857 L354,470.3857 L10,470.3857 A0,0 0 0 0 10,470.3857 " fill="#FEFFDD" style="stroke:#181818;stroke-width:0.5;"/><path d="M354,470.3857 L354,480.3857 L364,480.3857 L354,470.3857 " fill="#FEFFDD" style="stroke:#181818;stroke-width:0.5;"/><text fill="#000000" font-family="sans-serif" font-size="13" lengthAdjust="spacing" textLength="329" x="16" y="487.9541">&#1042; &#1041;&#1044; &#1089;&#1077;&#1088;&#1074;&#1080;&#1089;&#1072; &#1090;&#1086;&#1074;&#1072;&#1088;&#1086;&#1074; &#1084;&#1077;&#1085;&#1103;&#1077;&#1090;&#1089;&#1103; &#1082;&#1086;&#1083;&#1080;&#1095;&#1077;&#1089;&#1090;&#1074;&#1086; &#1090;&#1086;&#1074;&#1072;&#1088;&#1072;,</text><text fill="#000000" font-family="sans-serif" font-size="13" lengthAdjust="spacing" textLength="122" x="16" y="503.2646">&#1090;.&#1082; &#1090;&#1086;&#1074;&#1072;&#1088; &#1074; &#1088;&#1077;&#1079;&#1077;&#1088;&#1074;&#1077;</text><rect fill="#F1F1F1" height="34.1328" rx="12.5" ry="12.5" style="stroke:#181818;stroke-width:0.5;" width="375" x="384" y="473.6299"/><text fill="#000000" font-family="sans-serif" font-size="12" lengthAdjust="spacing" textLength="355" x="394" y="495.2314">&#1055;&#1086;&#1083;&#1100;&#1079;&#1086;&#1074;&#1072;&#1090;&#1077;&#1083;&#1100; &#1087;&#1077;&#1088;&#1077;&#1093;&#1086;&#1076;&#1080;&#1090; &#1085;&#1072; &#1089;&#1090;&#1088;&#1072;&#1085;&#1080;&#1094;&#1091; &#1086;&#1092;&#1086;&#1088;&#1084;&#1083;&#1077;&#1085;&#1080;&#1103; &#1079;&#1072;&#1082;&#1072;&#1079;&#1072;</text><path d="M1112,470.3857 L1112,486.6963 L1092,490.6963 L1112,494.6963 L1112,511.0068 A0,0 0 0 0 1112,511.0068 L1424,511.0068 A0,0 0 0 0 1424,511.0068 L1424,480.3857 L1414,470.3857 L1112,470.3857 A0,0 0 0 0 1112,470.3857 " fill="#FEFFDD" style="stroke:#181818;stroke-width:0.5;"/><path d="M1414,470.3857 L1414,480.3857 L1424,480.3857 L1414,470.3857 " fill="#FEFFDD" style="stroke:#181818;stroke-width:0.5;"/><text fill="#000000" font-family="sans-serif" font-size="13" lengthAdjust="spacing" textLength="226" x="1118" y="487.9541">&#1052;&#1077;&#1090;&#1086;&#1076;&#1086;&#1084; get &#1087;&#1086;&#1083;&#1091;&#1095;&#1072;&#1077;&#1084; &#1072;&#1082;&#1090;&#1091;&#1072;&#1083;&#1100;&#1085;&#1091;&#1102;</text><text fill="#000000" font-family="sans-serif" font-size="13" lengthAdjust="spacing" textLength="291" x="1118" y="503.2646">&#1080;&#1085;&#1092;&#1086;&#1088;&#1084;&#1072;&#1094;&#1080;&#1102; &#1086; &#1090;&#1086;&#1074;&#1072;&#1088;&#1072;&#1093; c &#1089; &#1089;&#1077;&#1088;&#1074;&#1080;&#1089;&#1072; &#1089;&#1082;&#1083;&#1072;&#1076;&#1086;&#1074;;</text><rect fill="#F1F1F1" height="34.1328" rx="12.5" ry="12.5" style="stroke:#181818;stroke-width:0.5;" width="313" x="779" y="473.6299"/><text fill="#000000" font-family="sans-serif" font-size="12" lengthAdjust="spacing" textLength="293" x="789" y="495.2314">&#1055;&#1086;&#1083;&#1100;&#1079;&#1086;&#1074;&#1072;&#1090;&#1077;&#1083;&#1102; &#1087;&#1088;&#1077;&#1076;&#1083;&#1072;&#1075;&#1072;&#1077;&#1090;&#1089;&#1103; &#1076;&#1086;&#1089;&#1090;&#1072;&#1074;&#1082;&#1072; &#1089;&#1086; &#1089;&#1082;&#1083;&#1072;&#1076;&#1072;</text><path d="M1089,535.418 L1089,544.0732 L1069,548.0732 L1089,552.0732 L1089,560.7285 A0,0 0 0 0 1089,560.7285 L1404,560.7285 A0,0 0 0 0 1404,560.7285 L1404,545.418 L1394,535.418 L1089,535.418 A0,0 0 0 0 1089,535.418 " fill="#FEFFDD" style="stroke:#181818;stroke-width:0.5;"/><path d="M1394,535.418 L1394,545.418 L1404,545.418 L1394,535.418 " fill="#FEFFDD" style="stroke:#181818;stroke-width:0.5;"/><text fill="#000000" font-family="sans-serif" font-size="13" lengthAdjust="spacing" textLength="294" x="1095" y="552.9863">&#1044;&#1072;&#1085;&#1085;&#1099;&#1077; &#1079;&#1072;&#1087;&#1080;&#1089;&#1099;&#1074;&#1072;&#1102;&#1090;&#1089;&#1103; &#1074; &#1041;&#1044; &#1089;&#1077;&#1088;&#1074;&#1080;&#1089;&#1072; &#1076;&#1086;&#1089;&#1090;&#1072;&#1074;&#1082;&#1080;</text><rect fill="#F1F1F1" height="34.1328" rx="12.5" ry="12.5" style="stroke:#181818;stroke-width:0.5;" width="267" x="802" y="531.0068"/><text fill="#000000" font-family="sans-serif" font-size="12" lengthAdjust="spacing" textLength="247" x="812" y="552.6084">&#1055;&#1086;&#1083;&#1100;&#1079;&#1086;&#1074;&#1072;&#1090;&#1077;&#1083;&#1100; &#1074;&#1099;&#1073;&#1080;&#1088;&#1072;&#1077;&#1090; &#1089;&#1087;&#1086;&#1089;&#1086;&#1073; &#1076;&#1086;&#1089;&#1090;&#1072;&#1074;&#1082;&#1080;</text><polygon fill="#F1F1F1" points="753.5,571.1396,765.5,583.1396,753.5,595.1396,741.5,583.1396,753.5,571.1396" style="stroke:#181818;stroke-width:0.5;"/><path d="M923,611.8955 L923,628.2061 L903,632.2061 L923,636.2061 L923,652.5166 A0,0 0 0 0 923,652.5166 L1222,652.5166 A0,0 0 0 0 1222,652.5166 L1222,621.8955 L1212,611.8955 L923,611.8955 A0,0 0 0 0 923,611.8955 " fill="#FEFFDD" style="stroke:#181818;stroke-width:0.5;"/><path d="M1212,611.8955 L1212,621.8955 L1222,621.8955 L1212,611.8955 " fill="#FEFFDD" style="stroke:#181818;stroke-width:0.5;"/><text fill="#000000" font-family="sans-serif" font-size="13" lengthAdjust="spacing" textLength="266" x="929" y="629.4639">&#1057;&#1077;&#1088;&#1074;&#1080;&#1089; &#1086;&#1073;&#1088;&#1072;&#1073;&#1086;&#1090;&#1082;&#1080; &#1079;&#1072;&#1082;&#1072;&#1079;&#1086;&#1074; &#1095;&#1077;&#1088;&#1077;&#1079; &#1073;&#1088;&#1086;&#1082;&#1082;&#1077;&#1088;</text><text fill="#000000" font-family="sans-serif" font-size="13" lengthAdjust="spacing" textLength="278" x="929" y="644.7744">&#1086;&#1073;&#1088;&#1072;&#1097;&#1072;&#1077;&#1090;&#1089;&#1103; &#1074; &#1089;&#1080;&#1089;&#1090;&#1077;&#1084;&#1091; &#1086;&#1073;&#1088;&#1072;&#1073;&#1086;&#1090;&#1082;&#1080; &#1087;&#1083;&#1072;&#1090;&#1072;&#1078;&#1077;&#1081;</text><rect fill="#F1F1F1" height="34.1328" rx="12.5" ry="12.5" style="stroke:#181818;stroke-width:0.5;" width="299" x="604" y="615.1396"/><text fill="#000000" font-family="sans-serif" font-size="12" lengthAdjust="spacing" textLength="279" x="614" y="636.7412">&#1055;&#1086;&#1083;&#1100;&#1079;&#1086;&#1074;&#1072;&#1090;&#1077;&#1083;&#1100; &#1087;&#1077;&#1088;&#1077;&#1093;&#1086;&#1076;&#1080;&#1090; &#1085;&#1072; &#1089;&#1090;&#1088;&#1072;&#1085;&#1080;&#1094;&#1091; &#1086;&#1087;&#1083;&#1072;&#1090;&#1099;</text><path d="M208,732.4717 L208,757.7822 A0,0 0 0 0 208,757.7822 L584,757.7822 A0,0 0 0 0 584,757.7822 L584,750.4717 L604,745.127 L584,742.4717 L584,742.4717 L574,732.4717 L208,732.4717 A0,0 0 0 0 208,732.4717 " fill="#FEFFDD" style="stroke:#181818;stroke-width:0.5;"/><path d="M574,732.4717 L574,742.4717 L584,742.4717 L574,732.4717 " fill="#FEFFDD" style="stroke:#181818;stroke-width:0.5;"/><text fill="#000000" font-family="sans-serif" font-size="13" lengthAdjust="spacing" textLength="355" x="214" y="750.04">&#1044;&#1072;&#1085;&#1085;&#1099;&#1077; &#1079;&#1072;&#1087;&#1080;&#1089;&#1099;&#1074;&#1072;&#1102;&#1090;&#1089;&#1103; &#1074; &#1041;&#1044; &#1089;&#1077;&#1088;&#1074;&#1080;&#1089;&#1072; &#1086;&#1073;&#1088;&#1072;&#1073;&#1086;&#1090;&#1082;&#1080; &#1079;&#1072;&#1082;&#1072;&#1079;&#1086;&#1074;</text><rect fill="#F1F1F1" height="48.2656" rx="12.5" ry="12.5" style="stroke:#181818;stroke-width:0.5;" width="299" x="604" y="720.9941"/><text fill="#000000" font-family="sans-serif" font-size="12" lengthAdjust="spacing" textLength="275" x="614" y="742.5957">&#1055;&#1086;&#1083;&#1100;&#1079;&#1086;&#1074;&#1072;&#1090;&#1077;&#1083;&#1102; &#1086;&#1090;&#1086;&#1073;&#1088;&#1072;&#1078;&#1072;&#1077;&#1090;&#1089;&#1103; &#1084;&#1086;&#1076;&#1072;&#1083;&#1100;&#1085;&#1086;&#1077; &#1086;&#1082;&#1085;&#1086;</text><text fill="#000000" font-family="sans-serif" font-size="12" lengthAdjust="spacing" textLength="205" x="614" y="756.7285">&#1086;&#1073; &#1091;&#1089;&#1087;&#1077;&#1096;&#1085;&#1086;&#1084; &#1086;&#1092;&#1086;&#1088;&#1084;&#1083;&#1077;&#1085;&#1080;&#1080; &#1079;&#1072;&#1082;&#1072;&#1079;&#1072;</text><polygon fill="#F1F1F1" points="696.5,672.5166,810.5,672.5166,822.5,684.5166,810.5,696.5166,696.5,696.5166,684.5,684.5166,696.5,672.5166" style="stroke:#181818;stroke-width:0.5;"/><text fill="#000000" font-family="sans-serif" font-size="11" lengthAdjust="spacing" textLength="14" x="757.5" y="707.1514">&#1044;&#1072;</text><text fill="#000000" font-family="sans-serif" font-size="11" lengthAdjust="spacing" textLength="114" x="696.5" y="688.6738">&#1058;&#1088;&#1072;&#1085;&#1079;&#1072;&#1082;&#1094;&#1080;&#1103; &#1087;&#1088;&#1086;&#1096;&#1083;&#1072;?</text><text fill="#000000" font-family="sans-serif" font-size="11" lengthAdjust="spacing" textLength="19" x="822.5" y="682.1963">&#1053;&#1077;&#1090;</text><ellipse cx="863.5" cy="684.5166" fill="none" rx="11" ry="11" style="stroke:#222222;stroke-width:1.0;"/><ellipse cx="863.5" cy="684.5166" fill="#222222" rx="6" ry="6" style="stroke:#222222;stroke-width:1.0;"/><path d="M302,793.6709 L302,818.9814 A0,0 0 0 0 302,818.9814 L601,818.9814 A0,0 0 0 0 601,818.9814 L601,811.6709 L621,806.3262 L601,803.6709 L601,803.6709 L591,793.6709 L302,793.6709 A0,0 0 0 0 302,793.6709 " fill="#FEFFDD" style="stroke:#181818;stroke-width:0.5;"/><path d="M591,793.6709 L591,803.6709 L601,803.6709 L591,793.6709 " fill="#FEFFDD" style="stroke:#181818;stroke-width:0.5;"/><text fill="#000000" font-family="sans-serif" font-size="13" lengthAdjust="spacing" textLength="278" x="308" y="811.2393">&#1044;&#1072;&#1085;&#1085;&#1099;&#1077; &#1087;&#1088;&#1080;&#1093;&#1086;&#1076;&#1103;&#1090; &#1080;&#1079; &#1089;&#1077;&#1088;&#1074;&#1080;&#1089;&#1072; &#1091;&#1074;&#1077;&#1076;&#1086;&#1084;&#1083;&#1077;&#1085;&#1080;&#1081;</text><rect fill="#F1F1F1" height="34.1328" rx="12.5" ry="12.5" style="stroke:#181818;stroke-width:0.5;" width="265" x="621" y="789.2598"/><text fill="#000000" font-family="sans-serif" font-size="12" lengthAdjust="spacing" textLength="245" x="631" y="810.8613">&#1055;&#1086;&#1083;&#1100;&#1079;&#1086;&#1074;&#1072;&#1090;&#1077;&#1083;&#1100; &#1089;&#1083;&#1077;&#1076;&#1080;&#1090; &#1079;&#1072; &#1089;&#1090;&#1072;&#1090;&#1091;&#1089;&#1086;&#1084; &#1079;&#1072;&#1082;&#1072;&#1079;&#1072;</text><path d="M263.5,847.8037 L263.5,873.1143 A0,0 0 0 0 263.5,873.1143 L635.5,873.1143 A0,0 0 0 0 635.5,873.1143 L635.5,865.8037 L655.5,860.459 L635.5,857.8037 L635.5,857.8037 L625.5,847.8037 L263.5,847.8037 A0,0 0 0 0 263.5,847.8037 " fill="#FEFFDD" style="stroke:#181818;stroke-width:0.5;"/><path d="M625.5,847.8037 L625.5,857.8037 L635.5,857.8037 L625.5,847.8037 " fill="#FEFFDD" style="stroke:#181818;stroke-width:0.5;"/><text fill="#000000" font-family="sans-serif" font-size="13" lengthAdjust="spacing" textLength="351" x="269.5" y="865.3721">&#1042; &#1041;&#1044; &#1089;&#1077;&#1088;&#1074;&#1080;&#1089;&#1072; &#1079;&#1072;&#1082;&#1072;&#1079;&#1086;&#1074; &#1084;&#1077;&#1085;&#1103;&#1077;&#1090;&#1089;&#1103; &#1089;&#1090;&#1072;&#1090;&#1091;&#1089; &#1085;&#1072; "&#1044;&#1086;&#1089;&#1090;&#1072;&#1074;&#1083;&#1077;&#1085;&#1086;"</text><rect fill="#F1F1F1" height="34.1328" rx="12.5" ry="12.5" style="stroke:#181818;stroke-width:0.5;" width="196" x="655.5" y="843.3926"/><text fill="#000000" font-family="sans-serif" font-size="12" lengthAdjust="spacing" textLength="176" x="665.5" y="864.9941">&#1055;&#1086;&#1083;&#1100;&#1079;&#1086;&#1074;&#1072;&#1090;&#1077;&#1083;&#1100; &#1087;&#1086;&#1083;&#1091;&#1095;&#1072;&#1077;&#1090; &#1079;&#1072;&#1082;&#1072;&#1079;</text><ellipse cx="753.5" cy="908.5254" fill="none" rx="11" ry="11" style="stroke:#222222;stroke-width:1.0;"/><ellipse cx="753.5" cy="908.5254" fill="#222222" rx="6" ry="6" style="stroke:#222222;stroke-width:1.0;"/><line style="stroke:#181818;stroke-width:1.0;" x1="753.5" x2="753.5" y1="30" y2="50"/><polygon fill="#181818" points="749.5,40,753.5,50,757.5,40,753.5,44" style="stroke:#181818;stroke-width:1.0;"/><line style="stroke:#181818;stroke-width:1.0;" x1="628" x2="567" y1="116.1328" y2="116.1328"/><line style="stroke:#181818;stroke-width:1.0;" x1="567" x2="567" y1="116.1328" y2="138.1328"/><polygon fill="#181818" points="563,128.1328,567,138.1328,571,128.1328,567,132.1328" style="stroke:#181818;stroke-width:1.0;"/><line style="stroke:#181818;stroke-width:1.0;" x1="879" x2="940" y1="116.1328" y2="116.1328"/><line style="stroke:#181818;stroke-width:1.0;" x1="940" x2="940" y1="116.1328" y2="138.1328"/><polygon fill="#181818" points="936,128.1328,940,138.1328,944,128.1328,940,132.1328" style="stroke:#181818;stroke-width:1.0;"/><line style="stroke:#181818;stroke-width:1.0;" x1="567" x2="567" y1="172.2656" y2="190.2656"/><line style="stroke:#181818;stroke-width:1.0;" x1="567" x2="741.5" y1="190.2656" y2="190.2656"/><polygon fill="#181818" points="731.5,186.2656,741.5,190.2656,731.5,194.2656,735.5,190.2656" style="stroke:#181818;stroke-width:1.0;"/><line style="stroke:#181818;stroke-width:1.0;" x1="940" x2="940" y1="172.2656" y2="190.2656"/><line style="stroke:#181818;stroke-width:1.0;" x1="940" x2="765.5" y1="190.2656" y2="190.2656"/><polygon fill="#181818" points="775.5,186.2656,765.5,190.2656,775.5,194.2656,771.5,190.2656" style="stroke:#181818;stroke-width:1.0;"/><line style="stroke:#181818;stroke-width:1.0;" x1="753.5" x2="753.5" y1="84.1328" y2="104.1328"/><polygon fill="#181818" points="749.5,94.1328,753.5,104.1328,757.5,94.1328,753.5,98.1328" style="stroke:#181818;stroke-width:1.0;"/><line style="stroke:#181818;stroke-width:1.0;" x1="753.5" x2="753.5" y1="304.876" y2="324.876"/><polygon fill="#181818" points="749.5,314.876,753.5,324.876,757.5,314.876,753.5,318.876" style="stroke:#181818;stroke-width:1.0;"/><line style="stroke:#181818;stroke-width:1.0;" x1="753.5" x2="753.5" y1="246.2656" y2="270.7432"/><polygon fill="#181818" points="749.5,260.7432,753.5,270.7432,757.5,260.7432,753.5,264.7432" style="stroke:#181818;stroke-width:1.0;"/><line style="stroke:#181818;stroke-width:1.0;" x1="811.5" x2="841.5" y1="234.2656" y2="234.2656"/><polygon fill="#181818" points="831.5,230.2656,841.5,234.2656,831.5,238.2656,835.5,234.2656" style="stroke:#181818;stroke-width:1.0;"/><line style="stroke:#181818;stroke-width:1.0;" x1="753.5" x2="753.5" y1="359.0088" y2="379.0088"/><polygon fill="#181818" points="749.5,369.0088,753.5,379.0088,757.5,369.0088,753.5,373.0088" style="stroke:#181818;stroke-width:1.0;"/><line style="stroke:#181818;stroke-width:1.0;" x1="753.5" x2="753.5" y1="202.2656" y2="222.2656"/><polygon fill="#181818" points="749.5,212.2656,753.5,222.2656,757.5,212.2656,753.5,216.2656" style="stroke:#181818;stroke-width:1.0;"/><line style="stroke:#181818;stroke-width:1.0;" x1="935.5" x2="935.5" y1="507.7627" y2="531.0068"/><polygon fill="#181818" points="931.5,521.0068,935.5,531.0068,939.5,521.0068,935.5,525.0068" style="stroke:#181818;stroke-width:1.0;"/><line style="stroke:#181818;stroke-width:1.0;" x1="649.5" x2="571.5" y1="448.3857" y2="448.3857"/><line style="stroke:#181818;stroke-width:1.0;" x1="571.5" x2="571.5" y1="448.3857" y2="473.6299"/><polygon fill="#181818" points="567.5,463.6299,571.5,473.6299,575.5,463.6299,571.5,467.6299" style="stroke:#181818;stroke-width:1.0;"/><line style="stroke:#181818;stroke-width:1.0;" x1="857.5" x2="935.5" y1="448.3857" y2="448.3857"/><line style="stroke:#181818;stroke-width:1.0;" x1="935.5" x2="935.5" y1="448.3857" y2="473.6299"/><polygon fill="#181818" points="931.5,463.6299,935.5,473.6299,939.5,463.6299,935.5,467.6299" style="stroke:#181818;stroke-width:1.0;"/><line style="stroke:#181818;stroke-width:1.0;" x1="571.5" x2="571.5" y1="507.7627" y2="583.1396"/><line style="stroke:#181818;stroke-width:1.0;" x1="571.5" x2="741.5" y1="583.1396" y2="583.1396"/><polygon fill="#181818" points="731.5,579.1396,741.5,583.1396,731.5,587.1396,735.5,583.1396" style="stroke:#181818;stroke-width:1.0;"/><line style="stroke:#181818;stroke-width:1.0;" x1="935.5" x2="935.5" y1="565.1396" y2="583.1396"/><line style="stroke:#181818;stroke-width:1.0;" x1="935.5" x2="765.5" y1="583.1396" y2="583.1396"/><polygon fill="#181818" points="775.5,579.1396,765.5,583.1396,775.5,587.1396,771.5,583.1396" style="stroke:#181818;stroke-width:1.0;"/><line style="stroke:#181818;stroke-width:1.0;" x1="753.5" x2="753.5" y1="413.1416" y2="436.3857"/><polygon fill="#181818" points="749.5,426.3857,753.5,436.3857,757.5,426.3857,753.5,430.3857" style="stroke:#181818;stroke-width:1.0;"/><line style="stroke:#181818;stroke-width:1.0;" x1="753.5" x2="753.5" y1="595.1396" y2="615.1396"/><polygon fill="#181818" points="749.5,605.1396,753.5,615.1396,757.5,605.1396,753.5,609.1396" style="stroke:#181818;stroke-width:1.0;"/><line style="stroke:#181818;stroke-width:1.0;" x1="753.5" x2="753.5" y1="696.5166" y2="720.9941"/><polygon fill="#181818" points="749.5,710.9941,753.5,720.9941,757.5,710.9941,753.5,714.9941" style="stroke:#181818;stroke-width:1.0;"/><line style="stroke:#181818;stroke-width:1.0;" x1="822.5" x2="852.5" y1="684.5166" y2="684.5166"/><polygon fill="#181818" points="842.5,680.5166,852.5,684.5166,842.5,688.5166,846.5,684.5166" style="stroke:#181818;stroke-width:1.0;"/><line style="stroke:#181818;stroke-width:1.0;" x1="753.5" x2="753.5" y1="769.2598" y2="789.2598"/><polygon fill="#181818" points="749.5,779.2598,753.5,789.2598,757.5,779.2598,753.5,783.2598" style="stroke:#181818;stroke-width:1.0;"/><line style="stroke:#181818;stroke-width:1.0;" x1="753.5" x2="753.5" y1="649.2725" y2="672.5166"/><polygon fill="#181818" points="749.5,662.5166,753.5,672.5166,757.5,662.5166,753.5,666.5166" style="stroke:#181818;stroke-width:1.0;"/><line style="stroke:#181818;stroke-width:1.0;" x1="753.5" x2="753.5" y1="823.3926" y2="843.3926"/><polygon fill="#181818" points="749.5,833.3926,753.5,843.3926,757.5,833.3926,753.5,837.3926" style="stroke:#181818;stroke-width:1.0;"/><line style="stroke:#181818;stroke-width:1.0;" x1="753.5" x2="753.5" y1="877.5254" y2="897.5254"/><polygon fill="#181818" points="749.5,887.5254,753.5,897.5254,757.5,887.5254,753.5,891.5254" style="stroke:#181818;stroke-width:1.0;"/><!--SRC=[lLRBRjfG4DtxAwwo0gbgeYvXqH_ffcfDWXH11EwUHqbJWK2jM5LzgFq2e7QWnfXVcFj7FJFNu1Tsa2frWMpVrvnpvinSkixhZcFLw0U5jDKJMkEveeKUaCVVYbPwJ4lQw1ujoDC3XHcpeeSvfVkOwilgWBowrMoeIl5PQzw6Zzzc4zxvN5b4k_nnLTNiLcXEYwfoRkmMKCvv8Uq0oLEqFnbcXedeK4_tz4nF4QZFmt8ynZ2puJU5mrPCXt48jdiyDtNBlktQ5Vh6TAkMKhLIGWO6CCr47dAJ45q1bE5yZADKg-tOgjEyld4i-ihxSPQBNw3ksbtdybtNxZ3e485Sex-XSfhwnB9RR-LCVcasJ3PIch7IMqHtUU09VGqvHZsM896GbteaPW3ZM5dwHFEql8j2UMlqCrvNi4fXO229n3IBAEA-kBgYx_Gbbw6kqxwBA9SaAzJl9KnmF4ye-lYjwrPnAgvjvw3uK7_WD62GDuB-aFL4i1scfie2zDqnYb31A8M9ei5lfDv0ggnQYILurkDKIX9_nKNdYOqcelhEf1EeH3EC82oi1aOCXRoN-HmNwhCNF9uU2VCDwxDZO95hyR7HztgO4X9xUNYMa98MaPYtTWDQVZxfZJHRXkqTIiXOofUgOcR25slJAZvJbXuy9p_RZxZKrb4eBr4FvvNqr3GFZmit4lA826OG96n8NtHXI7syyrANQPSLz7zoKOmdxQBIDfRhyNr6AerdcIKkVIjDz9okKTWaCgTdMrWfxlCTYwLRtgd7wKfFTIAmbMrBQJu-LrJiQhQfk54SfcHfY3cVXv2pQBF-cFHC-aOpI78n8cWOVCIgFzdAZvW84l72uORJ3xpnx0gVcfvw0F2On1c8W949yUufuOPNzQebBe0p-wBtWom8JdI1j5xfBl1F5dagBuLbVjQzW1XRgVXDT2CeuqUkIoc1u4nQU_a_8rxagr7nVPQhpo7t9TCIZhebKbvgzaJlE7LvbVNRZ95p_JP9sHJH1SZ5bMcWXXSnKj7sBm00]--></g></svg>